<svg width="240" height="240" viewBox="0 0 400 400" fill="none" xmlns="http://www.w3.org/2000/svg" preserveAspectRatio="xMidYMid meet">
<g clip-path="url(#clip0_39_451)">
<rect width="400" height="400" fill="white"/>
<rect width="400" height="400" fill="url(#paint0_linear_39_451)" fill-opacity="0.3"/>
<path d="M307.5 317.5C307.5 339.72 295.766 359.939 276.749 374.65C257.731 389.362 231.496 398.5 202.745 398.5C145.083 398.5 98.5 361.908 98.5 317.5C98.5 273.092 145.083 236.5 202.745 236.5C231.496 236.5 257.731 245.638 276.749 260.35C295.766 275.061 307.5 295.28 307.5 317.5Z" fill="white" stroke="black" stroke-width="3"/>
<rect y="320" width="400" height="80" fill="#52525B"/>
<path d="M138 329C138 327.343 139.343 326 141 326H275.78C277.844 326 279.292 328.036 278.614 329.986L272.701 346.986C272.281 348.192 271.144 349 269.867 349H141C139.343 349 138 347.657 138 346V329Z" fill="#B9B9B9"/>
<path d="M123 322.5C123 326.559 121.407 328.921 118.913 330.37C116.278 331.903 112.481 332.5 108 332.5C103.515 332.5 99.8595 331.901 97.3609 330.385C95.0062 328.956 93.5 326.604 93.5 322.5C93.5 314.155 99.7755 307.5 108 307.5C116.284 307.5 123 314.216 123 322.5Z" fill="white" stroke="black" stroke-width="3"/>
<path d="M320 322.5C320 326.559 318.407 328.921 315.913 330.37C313.278 331.903 309.481 332.5 305 332.5C300.515 332.5 296.859 331.901 294.361 330.385C292.006 328.956 290.5 326.604 290.5 322.5C290.5 314.216 296.716 308 305 308C313.345 308 320 314.276 320 322.5Z" fill="white" stroke="black" stroke-width="3"/>
<rect x="136" y="268" width="137" height="83" rx="6" fill="#D9D9D9"/>
<path d="M272.016 80.11L271.839 79.4516L271.227 79.1517C251.233 69.358 245.5 50.2377 245.5 34.4351C245.5 19.7176 253.004 6.96846 268.726 -1.855C284.52 -10.7193 308.609 -15.6037 341.554 -14.2878C373.454 -13.0137 392.66 -8.12715 403.887 0.000139236C414.951 8.0095 418.5 19.356 418.5 34.4351C418.5 49.6159 415.818 62.7664 405.447 72.6485C395.019 82.5845 376.53 89.4972 344.188 91.3829C325.309 92.4837 308.248 91.5099 294.111 87.6483L293.466 87.472L292.903 87.8345L292.903 87.8345L292.903 87.8346L292.902 87.8354L292.896 87.8392L292.87 87.8558L292.764 87.923C292.671 87.9824 292.531 88.0705 292.351 88.1832C291.989 88.4087 291.463 88.7328 290.809 89.1238C289.501 89.9064 287.688 90.9541 285.666 92.0159C283.64 93.0795 281.425 94.147 279.309 94.9767C277.169 95.8155 275.233 96.3702 273.736 96.4818C272.997 96.5369 272.597 96.4568 272.396 96.3762C272.247 96.316 272.19 96.2531 272.137 96.1466C272.059 95.9895 271.98 95.6933 271.964 95.1589C271.948 94.6333 271.995 93.9897 272.083 93.1984C272.132 92.764 272.193 92.2942 272.258 91.7931C272.655 88.742 273.202 84.5308 272.016 80.11Z" fill="white" stroke="black" stroke-width="3"/>
</g>
<defs>
<linearGradient id="paint0_linear_39_451" x1="200" y1="0" x2="200" y2="400" gradientUnits="userSpaceOnUse">
<stop stop-opacity="0"/>
<stop offset="1"/>
</linearGradient>
<clipPath id="clip0_39_451">
<rect width="400" height="400" fill="white"/>
</clipPath>
</defs>
</svg>
